<svg width="19" height="15" viewBox="0 0 19 15" fill="none" xmlns="http://www.w3.org/2000/svg">
<path opacity="0.3" d="M18.3953 2.41449C17.7203 2.70013 17.0044 2.88765 16.2713 2.97084C17.0337 2.53297 17.6202 1.84099 17.8962 1.01526C17.1703 1.42694 16.3762 1.71699 15.548 1.87286C14.8491 1.15947 13.8717 0.755389 12.8491 0.757085C10.8077 0.757085 9.15087 2.33909 9.15087 4.29061C9.15087 4.5679 9.18353 4.83816 9.24747 5.09623C6.17367 4.94862 3.44945 3.54236 1.62518 1.404C1.30665 1.92529 1.12495 2.53297 1.12495 3.18076C1.12495 4.40623 1.77755 5.48805 2.7696 6.12188C2.18224 6.10468 1.60776 5.95309 1.09437 5.67983V5.7249C1.09437 7.43659 2.36919 8.86495 4.06007 9.19027C3.5155 9.3312 2.94452 9.35187 2.39035 9.25072C2.86114 10.6549 4.22727 11.6764 5.84478 11.7061C4.57939 12.6524 2.9851 13.2184 1.25214 13.2184C0.957464 13.2181 0.663052 13.2015 0.370361 13.1689C2.00673 14.1713 3.95094 14.7571 6.03912 14.7571C12.841 14.7571 16.56 9.37118 16.56 4.70056C16.56 4.54779 16.56 4.39502 16.5485 4.24335C17.2721 3.74295 17.897 3.12372 18.3941 2.41449H18.3953Z" fill="white"/>
</svg>
